<?xml version="1.0" encoding="iso-8859-1"?>
<!-- Generator: Adobe Illustrator 19.0.0, SVG Export Plug-In . SVG Version: 6.00 Build 0)  -->
<svg version="1.1" id="Layer_1" xmlns="http://www.w3.org/2000/svg" xmlns:xlink="http://www.w3.org/1999/xlink" x="0px" y="0px"
	 viewBox="0 0 512 512" style="enable-background:new 0 0 512 512;" xml:space="preserve">
<rect x="160" y="357.424" style="fill:#333333;" width="192" height="108.336"/>
<polygon points="160,376.16 274.24,376.16 160,434.064 "/>
<path style="fill:#999999;" d="M377.456,487.84H134.544c-9.424,0-17.12-7.712-17.12-17.12l0,0c0-9.424,7.712-17.12,17.12-17.12
	H377.44c9.424,0,17.12,7.712,17.12,17.12l0,0C394.576,480.144,386.864,487.84,377.456,487.84z"/>
<path style="fill:#D6D6D6;" d="M480,376.16H32c-17.6,0-32-14.4-32-32v-288c0-17.6,14.4-32,32-32h448c17.6,0,32,14.4,32,32v288
	C512,361.76,497.6,376.16,480,376.16z"/>
<rect x="21.968" y="46.096" style="fill:#0BA4E0;" width="468.16" height="308.128"/>
<path style="fill:#FFFFFF;" d="M341.088,285.312H170.912c-31.184,0-56.56-25.376-56.56-56.56c0-25.536,16.96-47.504,41.088-54.352
	c-0.016-0.464-0.016-0.928-0.016-1.408c0-39.28,31.952-71.232,71.232-71.232c28.08,0,53.408,16.608,64.848,41.904
	c2.816-0.56,5.648-0.832,8.496-0.832c19.056,0,35.648,11.824,42.048,29.344c30.736,0.512,55.584,25.68,55.584,56.544
	C397.648,259.936,372.272,285.312,341.088,285.312z"/>
<g>
</g>
<g>
</g>
<g>
</g>
<g>
</g>
<g>
</g>
<g>
</g>
<g>
</g>
<g>
</g>
<g>
</g>
<g>
</g>
<g>
</g>
<g>
</g>
<g>
</g>
<g>
</g>
<g>
</g>
</svg>
